<svg xmlns="http://www.w3.org/2000/svg" xmlns:xlink="http://www.w3.org/1999/xlink" width="414" zoomAndPan="magnify" viewBox="0 0 310.5 310.499999" height="414" preserveAspectRatio="xMidYMid meet" version="1.0"><path fill="#f7eaad" d="M 127.144531 93.199219 L 183.347656 93.199219 L 183.347656 106.34375 L 127.144531 106.34375 Z M 127.144531 93.199219 " fill-opacity="1" fill-rule="nonzero"/><path fill="#f7eaad" d="M 154.859375 0 C 69.332031 0 0 69.332031 0 154.859375 C 0 240.386719 69.332031 309.722656 154.859375 309.722656 C 240.386719 309.722656 309.722656 240.386719 309.722656 154.859375 C 309.722656 69.332031 240.386719 0 154.859375 0 Z M 245.195312 213.238281 C 245.195312 223.886719 236.566406 232.511719 225.929688 232.511719 L 83.792969 232.511719 C 73.152344 232.511719 64.523438 223.886719 64.523438 213.238281 L 64.523438 161.136719 L 108.746094 161.136719 L 108.746094 169.320312 C 108.746094 171.152344 110.226562 172.636719 112.058594 172.636719 L 125.316406 172.636719 C 127.148438 172.636719 128.628906 171.152344 128.628906 169.320312 L 128.628906 161.136719 L 181.867188 161.136719 L 181.867188 169.320312 C 181.867188 171.152344 183.347656 172.636719 185.183594 172.636719 L 198.4375 172.636719 C 200.273438 172.636719 201.753906 171.152344 201.753906 169.320312 L 201.753906 161.136719 L 245.203125 161.136719 L 245.203125 213.238281 Z M 113.128906 166.148438 L 113.128906 149.621094 C 113.128906 149.027344 113.609375 148.546875 114.203125 148.546875 L 123.164062 148.546875 C 123.753906 148.546875 124.238281 149.027344 124.238281 149.621094 L 124.238281 166.148438 C 124.238281 166.742188 123.753906 167.222656 123.164062 167.222656 L 114.203125 167.222656 C 113.609375 167.222656 113.128906 166.742188 113.128906 166.148438 Z M 186.242188 166.148438 L 186.242188 149.621094 C 186.242188 149.027344 186.726562 148.546875 187.316406 148.546875 L 196.277344 148.546875 C 196.871094 148.546875 197.351562 149.027344 197.351562 149.621094 L 197.351562 166.148438 C 197.351562 166.742188 196.871094 167.222656 196.277344 167.222656 L 187.316406 167.222656 C 186.726562 167.222656 186.242188 166.742188 186.242188 166.148438 Z M 245.191406 154.632812 L 201.742188 154.632812 L 201.742188 146.449219 C 201.742188 144.617188 200.257812 143.132812 198.425781 143.132812 L 185.167969 143.132812 C 183.335938 143.132812 181.855469 144.617188 181.855469 146.449219 L 181.855469 154.632812 L 128.617188 154.632812 L 128.617188 146.449219 C 128.617188 144.617188 127.136719 143.132812 125.304688 143.132812 L 112.046875 143.132812 C 110.214844 143.132812 108.734375 144.617188 108.734375 146.449219 L 108.734375 154.632812 L 64.511719 154.632812 L 64.511719 125.625 C 64.511719 114.980469 73.140625 106.351562 83.78125 106.351562 L 111.140625 106.351562 L 111.140625 88.421875 L 111.25 87.335938 L 111.140625 86.25 L 111.140625 84.15625 C 111.140625 80.320312 114.25 77.207031 118.089844 77.207031 L 192.371094 77.207031 C 196.210938 77.207031 199.320312 80.320312 199.320312 84.15625 L 199.320312 86.25 L 199.210938 87.335938 L 199.320312 88.421875 L 199.320312 106.351562 L 225.914062 106.351562 C 236.554688 106.351562 245.183594 114.980469 245.183594 125.625 L 245.183594 154.632812 Z M 245.191406 154.632812 " fill-opacity="1" fill-rule="nonzero"/><path fill="#f7eaad" d="M 127.144531 93.199219 L 183.347656 93.199219 L 183.347656 106.34375 L 127.144531 106.34375 Z M 127.144531 93.199219 " fill-opacity="1" fill-rule="nonzero"/><path fill="#f7eaad" d="M 154.859375 0 C 69.332031 0 0 69.332031 0 154.859375 C 0 240.386719 69.332031 309.722656 154.859375 309.722656 C 240.386719 309.722656 309.722656 240.386719 309.722656 154.859375 C 309.722656 69.332031 240.386719 0 154.859375 0 Z M 245.195312 213.238281 C 245.195312 223.886719 236.566406 232.511719 225.929688 232.511719 L 83.792969 232.511719 C 73.152344 232.511719 64.523438 223.886719 64.523438 213.238281 L 64.523438 161.136719 L 108.746094 161.136719 L 108.746094 169.320312 C 108.746094 171.152344 110.226562 172.636719 112.058594 172.636719 L 125.316406 172.636719 C 127.148438 172.636719 128.628906 171.152344 128.628906 169.320312 L 128.628906 161.136719 L 181.867188 161.136719 L 181.867188 169.320312 C 181.867188 171.152344 183.347656 172.636719 185.183594 172.636719 L 198.4375 172.636719 C 200.273438 172.636719 201.753906 171.152344 201.753906 169.320312 L 201.753906 161.136719 L 245.203125 161.136719 L 245.203125 213.238281 Z M 113.128906 166.148438 L 113.128906 149.621094 C 113.128906 149.027344 113.609375 148.546875 114.203125 148.546875 L 123.164062 148.546875 C 123.753906 148.546875 124.238281 149.027344 124.238281 149.621094 L 124.238281 166.148438 C 124.238281 166.742188 123.753906 167.222656 123.164062 167.222656 L 114.203125 167.222656 C 113.609375 167.222656 113.128906 166.742188 113.128906 166.148438 Z M 186.242188 166.148438 L 186.242188 149.621094 C 186.242188 149.027344 186.726562 148.546875 187.316406 148.546875 L 196.277344 148.546875 C 196.871094 148.546875 197.351562 149.027344 197.351562 149.621094 L 197.351562 166.148438 C 197.351562 166.742188 196.871094 167.222656 196.277344 167.222656 L 187.316406 167.222656 C 186.726562 167.222656 186.242188 166.742188 186.242188 166.148438 Z M 245.191406 154.632812 L 201.742188 154.632812 L 201.742188 146.449219 C 201.742188 144.617188 200.257812 143.132812 198.425781 143.132812 L 185.167969 143.132812 C 183.335938 143.132812 181.855469 144.617188 181.855469 146.449219 L 181.855469 154.632812 L 128.617188 154.632812 L 128.617188 146.449219 C 128.617188 144.617188 127.136719 143.132812 125.304688 143.132812 L 112.046875 143.132812 C 110.214844 143.132812 108.734375 144.617188 108.734375 146.449219 L 108.734375 154.632812 L 64.511719 154.632812 L 64.511719 125.625 C 64.511719 114.980469 73.140625 106.351562 83.78125 106.351562 L 111.140625 106.351562 L 111.140625 88.421875 L 111.25 87.335938 L 111.140625 86.25 L 111.140625 84.15625 C 111.140625 80.320312 114.25 77.207031 118.089844 77.207031 L 192.371094 77.207031 C 196.210938 77.207031 199.320312 80.320312 199.320312 84.15625 L 199.320312 86.25 L 199.210938 87.335938 L 199.320312 88.421875 L 199.320312 106.351562 L 225.914062 106.351562 C 236.554688 106.351562 245.183594 114.980469 245.183594 125.625 L 245.183594 154.632812 Z M 245.191406 154.632812 " fill-opacity="1" fill-rule="nonzero"/></svg>